<mxfile host="app.diagrams.net" modified="2023-03-13T12:07:04.466Z" agent="5.0 (Windows NT 10.0; Win64; x64) AppleWebKit/537.36 (KHTML, like Gecko) Chrome/110.0.0.0 Safari/537.36 Edg/110.0.1587.63" etag="YrEpfqCpsLLFc2pmVcwU" version="21.0.6" type="github">
  <diagram name="第 1 页" id="8XpxVip_zQUn2XfovXlI">
    <mxGraphModel dx="1366" dy="836" grid="1" gridSize="10" guides="1" tooltips="1" connect="1" arrows="1" fold="1" page="1" pageScale="1" pageWidth="827" pageHeight="1169" math="0" shadow="0">
      <root>
        <mxCell id="0" />
        <mxCell id="1" parent="0" />
        <mxCell id="KZSdHibfgJGxLtSKP2qu-1" value="&lt;font style=&quot;font-size: 17px;&quot;&gt;1&lt;/font&gt;" style="rounded=0;whiteSpace=wrap;html=1;fillColor=#dae8fc;strokeColor=#6c8ebf;" vertex="1" parent="1">
          <mxGeometry x="120" y="240" width="100" height="50" as="geometry" />
        </mxCell>
        <mxCell id="KZSdHibfgJGxLtSKP2qu-2" value="&lt;font style=&quot;font-size: 17px;&quot;&gt;id&lt;/font&gt;" style="text;html=1;strokeColor=none;fillColor=none;align=center;verticalAlign=middle;whiteSpace=wrap;rounded=0;" vertex="1" parent="1">
          <mxGeometry x="140" y="210" width="60" height="30" as="geometry" />
        </mxCell>
        <mxCell id="KZSdHibfgJGxLtSKP2qu-3" value="&lt;span style=&quot;font-size: 17px;&quot;&gt;小明&lt;/span&gt;" style="rounded=0;whiteSpace=wrap;html=1;fillColor=#dae8fc;strokeColor=#6c8ebf;" vertex="1" parent="1">
          <mxGeometry x="220" y="240" width="100" height="50" as="geometry" />
        </mxCell>
        <mxCell id="KZSdHibfgJGxLtSKP2qu-4" value="&lt;font style=&quot;font-size: 17px;&quot;&gt;name&lt;/font&gt;" style="text;html=1;strokeColor=none;fillColor=none;align=center;verticalAlign=middle;whiteSpace=wrap;rounded=0;" vertex="1" parent="1">
          <mxGeometry x="240" y="210" width="60" height="30" as="geometry" />
        </mxCell>
        <mxCell id="KZSdHibfgJGxLtSKP2qu-5" value="&lt;span style=&quot;font-size: 17px;&quot;&gt;1000000&lt;/span&gt;" style="rounded=0;whiteSpace=wrap;html=1;fillColor=#dae8fc;strokeColor=#6c8ebf;" vertex="1" parent="1">
          <mxGeometry x="320" y="240" width="100" height="50" as="geometry" />
        </mxCell>
        <mxCell id="KZSdHibfgJGxLtSKP2qu-6" value="&lt;font style=&quot;font-size: 17px;&quot;&gt;balance&lt;/font&gt;" style="text;html=1;strokeColor=none;fillColor=none;align=center;verticalAlign=middle;whiteSpace=wrap;rounded=0;" vertex="1" parent="1">
          <mxGeometry x="340" y="210" width="60" height="30" as="geometry" />
        </mxCell>
        <mxCell id="KZSdHibfgJGxLtSKP2qu-7" value="&lt;span style=&quot;font-size: 17px;&quot;&gt;50&lt;/span&gt;" style="rounded=0;whiteSpace=wrap;html=1;" vertex="1" parent="1">
          <mxGeometry x="420" y="240" width="100" height="50" as="geometry" />
        </mxCell>
        <mxCell id="KZSdHibfgJGxLtSKP2qu-8" value="" style="rounded=0;whiteSpace=wrap;html=1;" vertex="1" parent="1">
          <mxGeometry x="520" y="240" width="100" height="50" as="geometry" />
        </mxCell>
        <mxCell id="KZSdHibfgJGxLtSKP2qu-9" value="&lt;font style=&quot;font-size: 17px;&quot;&gt;trx_id&lt;/font&gt;" style="text;html=1;strokeColor=none;fillColor=none;align=center;verticalAlign=middle;whiteSpace=wrap;rounded=0;" vertex="1" parent="1">
          <mxGeometry x="440" y="210" width="60" height="30" as="geometry" />
        </mxCell>
        <mxCell id="KZSdHibfgJGxLtSKP2qu-10" value="&lt;font style=&quot;font-size: 17px;&quot;&gt;roll_pointer&lt;/font&gt;" style="text;html=1;strokeColor=none;fillColor=none;align=center;verticalAlign=middle;whiteSpace=wrap;rounded=0;" vertex="1" parent="1">
          <mxGeometry x="540" y="210" width="60" height="30" as="geometry" />
        </mxCell>
        <mxCell id="KZSdHibfgJGxLtSKP2qu-13" value="" style="ellipse;whiteSpace=wrap;html=1;aspect=fixed;" vertex="1" parent="1">
          <mxGeometry x="564" y="259" width="12" height="12" as="geometry" />
        </mxCell>
        <mxCell id="KZSdHibfgJGxLtSKP2qu-14" value="&lt;font style=&quot;font-size: 17px;&quot;&gt;&lt;b&gt;undo 日志&lt;/b&gt;&lt;/font&gt;" style="rounded=1;whiteSpace=wrap;html=1;fillColor=#fff2cc;strokeColor=#d6b656;" vertex="1" parent="1">
          <mxGeometry x="610" y="320" width="160" height="50" as="geometry" />
        </mxCell>
        <mxCell id="KZSdHibfgJGxLtSKP2qu-15" value="" style="endArrow=classic;html=1;rounded=0;exitX=0.5;exitY=1;exitDx=0;exitDy=0;entryX=0;entryY=0.5;entryDx=0;entryDy=0;fontStyle=1" edge="1" parent="1" source="KZSdHibfgJGxLtSKP2qu-13" target="KZSdHibfgJGxLtSKP2qu-14">
          <mxGeometry width="50" height="50" relative="1" as="geometry">
            <mxPoint x="390" y="450" as="sourcePoint" />
            <mxPoint x="440" y="400" as="targetPoint" />
            <Array as="points">
              <mxPoint x="570" y="345" />
            </Array>
          </mxGeometry>
        </mxCell>
        <mxCell id="KZSdHibfgJGxLtSKP2qu-16" value="" style="endArrow=none;dashed=1;html=1;rounded=0;" edge="1" parent="1">
          <mxGeometry width="50" height="50" relative="1" as="geometry">
            <mxPoint x="420" y="160" as="sourcePoint" />
            <mxPoint x="420" y="400" as="targetPoint" />
          </mxGeometry>
        </mxCell>
        <mxCell id="KZSdHibfgJGxLtSKP2qu-17" value="" style="endArrow=none;dashed=1;html=1;rounded=0;" edge="1" parent="1">
          <mxGeometry width="50" height="50" relative="1" as="geometry">
            <mxPoint x="800" y="400" as="sourcePoint" />
            <mxPoint x="420" y="400" as="targetPoint" />
          </mxGeometry>
        </mxCell>
        <mxCell id="KZSdHibfgJGxLtSKP2qu-18" value="" style="endArrow=none;dashed=1;html=1;rounded=0;" edge="1" parent="1">
          <mxGeometry width="50" height="50" relative="1" as="geometry">
            <mxPoint x="800" y="400" as="sourcePoint" />
            <mxPoint x="800" y="160" as="targetPoint" />
          </mxGeometry>
        </mxCell>
        <mxCell id="KZSdHibfgJGxLtSKP2qu-19" value="" style="endArrow=none;dashed=1;html=1;rounded=0;" edge="1" parent="1">
          <mxGeometry width="50" height="50" relative="1" as="geometry">
            <mxPoint x="800" y="160" as="sourcePoint" />
            <mxPoint x="420" y="160" as="targetPoint" />
          </mxGeometry>
        </mxCell>
        <mxCell id="KZSdHibfgJGxLtSKP2qu-21" value="" style="rounded=1;whiteSpace=wrap;html=1;" vertex="1" parent="1">
          <mxGeometry x="110" y="120" width="720" height="330" as="geometry" />
        </mxCell>
        <mxCell id="KZSdHibfgJGxLtSKP2qu-20" value="&lt;span style=&quot;font-size: 17px;&quot;&gt;&lt;b&gt;隐藏列&lt;/b&gt;&lt;/span&gt;" style="text;html=1;strokeColor=none;fillColor=none;align=center;verticalAlign=middle;whiteSpace=wrap;rounded=0;" vertex="1" parent="1">
          <mxGeometry x="540" y="170" width="60" height="30" as="geometry" />
        </mxCell>
      </root>
    </mxGraphModel>
  </diagram>
</mxfile>
